<?xml version="1.0" standalone="no"?>
<!DOCTYPE svg PUBLIC "-//W3C//DTD SVG 1.1//EN" "http://www.w3.org/Graphics/SVG/1.1/DTD/svg11.dtd" >
<svg xmlns="http://www.w3.org/2000/svg" xmlns:xlink="http://www.w3.org/1999/xlink" version="1.1">
<metadata>
Created by FontForge 20190801 at Tue May 27 23:27:57 2008
 By Jimmy Wärting
Copyright (c) 2008 by ShyFoundry. All rights reserved. Freeware for personal use only. To purchase a commercial license, please visit our site at http://www.shyfoundry.com.
</metadata>
<defs>
<font id="SFPixelateShaded-Bold" horiz-adv-x="1434" >
  <font-face 
    font-family="SF Pixelate Shaded"
    font-weight="700"
    font-stretch="normal"
    units-per-em="2048"
    panose-1="0 0 4 0 0 0 0 0 0 0"
    ascent="1638"
    descent="-410"
    x-height="1106"
    cap-height="1516"
    bbox="-79 -585 2636 1925"
    underline-thickness="20"
    underline-position="-143"
    unicode-range="U+0020-02DA"
  />
<missing-glyph horiz-adv-x="1024" 
 />
    <glyph glyph-name=".notdef" horiz-adv-x="1024" 
 />
    <glyph glyph-name="space" unicode=" " horiz-adv-x="1229" 
 />
    <glyph glyph-name="dollar" unicode="$" 
d="M584 850h-144v348h144v-348zM993 236h-143v348h143v-348zM1260 174v471h-205v205h-205v348h143v-205h267v267h-205v204h-205v205h-266v-205h-205v-204h-205v-472h205v-204h205v-348h-144v204h-266v-266h205v-202h205v-204h266v204h205v202h205zM1311 696v-12l96 -96v-561
h-205v-202h-205v-205h-356l-96 96h-13v109h-96l-96 96h-12v106h-97l-96 96h-12v369h258l-41 40h-12v109h-97l-96 96h-12v574h205v205h204v204h369v-12l96 -96v-96h109v-13l96 -96v-96h109v-13l96 -96v-356h-258l53 -53v-97h109z" />
    <glyph glyph-name="percent" unicode="%" horiz-adv-x="1843" 
d="M1403 236h-143v143h143v-143zM584 1055h-144v143h144v-143zM1669 174v266h-205v205h-266v-205h-205v-266h205v-202h266v202h205zM850 993v267h-205v204h-266v-204h-205v-267h205v-205h266v205h205zM1464 993v471h-266v-409h-205v-205h-205v-205h-204v-205h-205v-468h266
v407h205v205h205v204h205v205h204zM1147 1106v410h369v-13l96 -96v-561h-205v-150h109v-12l96 -96v-96h108v-13l97 -96v-356h-205v-202h-357l-96 96h-12v106h-96l-97 96h-12v108h-149v-406h-357l-96 96h-12v571h204v149h-96l-96 96h-12v109h-97l-96 96h-12v369h205v205h368
v-13l97 -96v-96h108v-13l96 -96v-96h150z" />
    <glyph glyph-name="ampersand" unicode="&#x26;" 
d="M584 850h-144v348h144v-348zM584 236h-144v348h144v-348zM1260 174v266h-267v-204h-143v348h205v266h-205v348h143v-205h267v267h-205v204h-205v205h-266v-205h-205v-204h-205v-472h205v-143h-205v-471h205v-202h205v-204h266v204h205v202h205zM1311 492v-13l96 -96v-356
h-205v-202h-205v-205h-356l-96 96h-13v109h-96l-96 96h-12v106h-97l-96 96h-12v573h53l-41 41h-12v574h205v205h204v204h369v-12l96 -96v-96h109v-13l96 -96v-96h109v-13l96 -96v-356h-258l53 -53v-301h109z" />
    <glyph glyph-name="quotesingle" unicode="'" horiz-adv-x="614" 
d="M440 1096v368h-266v-266h102v-102h164zM135 1147h-12v369h369v-13l96 -96v-459h-254l-96 96h-13v13z" />
    <glyph glyph-name="parenleft" unicode="(" horiz-adv-x="1024" 
d="M850 -232v263h-205v409h-205v553h205v410h205v266h-266v-205h-205v-409h-205v-676h205v-407h205v-204h266zM436 -175l-96 96h-12v310h-97l-96 97h-12v778h205v410h204v204h369v-12l96 -96v-357h-204v-409h-205v-354h108v-13l97 -96v-301h108v-12l96 -96v-354h-356l-96 96
h-13v109h-96z" />
    <glyph glyph-name="parenright" unicode=")" horiz-adv-x="1024" 
d="M850 379v676h-205v409h-205v205h-266v-266h205v-410h205v-553h-205v-409h-205v-263h266v204h205v407h205zM901 1106v-12l96 -97v-766h-204v-406h-205v-205h-357l-96 96h-12v366h205v410h204v354h-96l-96 96h-12v313h-97l-96 97h-12v368h369v-12l96 -96v-96h108v-13
l97 -96v-301h108z" />
    <glyph glyph-name="asterisk" unicode="*" horiz-adv-x="1024" 
d="M850 788v267h-205v143h205v266h-266v-204h-144v204h-266v-266h205v-143h-205v-267h266v205h144v-205h266zM123 737v369h53l-41 41h-12v369h369v-13l40 -41v54h369v-13l96 -96v-356h-53l53 -54v-356h-356l-53 53v-53h-357l-96 96h-12z" />
    <glyph glyph-name="plus" unicode="+" horiz-adv-x="1024" 
d="M850 584v266h-205v205h-266v-205h-205v-266h205v-205h266v205h205zM901 901v-12l96 -96v-357h-204v-205h-357l-96 97h-12v108h-97l-96 96h-12v369h205v205h368v-12l97 -97v-96h108z" />
    <glyph glyph-name="comma" unicode="," horiz-adv-x="614" 
d="M440 -130v366h-266v-264h102v-102h164zM135 -79h-12v366h369v-13l96 -96v-456h-254l-96 97h-13v12z" />
    <glyph glyph-name="hyphen" unicode="-" horiz-adv-x="1024" 
d="M850 584v266h-676v-266h676zM901 901v-12l96 -96v-357h-766l-96 96h-12v369h778z" />
    <glyph glyph-name="period" unicode="." horiz-adv-x="614" 
d="M440 -28v264h-266v-264h266zM492 287v-13l96 -96v-353h-357l-96 96h-12v366h369z" />
    <glyph glyph-name="slash" unicode="/" 
d="M1260 1198v471h-267v-409h-205v-410h-204v-205h-205v-409h-205v-468h266v406h205v410h205v204h205v410h205zM123 -284v571h205v409h204v205h205v410h205v409h369v-12l96 -96v-561h-205v-410h-205v-205h-204v-409h-205v-407h-357l-96 96h-12z" />
    <glyph glyph-name="zero" unicode="0" 
d="M993 236h-553v962h553v-962zM1260 174v1086h-205v204h-676v-204h-205v-1086h205v-202h676v202h205zM1311 1311v-13l96 -96v-1175h-205v-202h-766l-96 96h-12v106h-97l-96 96h-12v1188h205v205h778v-13l96 -96v-96h109zM942 287v764h-354v-764h354z" />
    <glyph glyph-name="one" unicode="1" horiz-adv-x="614" 
d="M440 -28v1492h-266v-1492h266zM492 1516v-13l96 -96v-1582h-357l-96 96h-12v1595h369z" />
    <glyph glyph-name="two" unicode="2" 
d="M1260 -28v264h-820v348h615v204h205v472h-205v204h-676v-204h-205v-267h266v205h553v-348h-614v-205h-205v-673h1086zM328 696v150h-97l-96 96h-12v369h205v205h778v-13l96 -96v-96h109v-13l96 -96v-561h-205v-205h-614v-149h723v-13l96 -96v-353h-1176l-96 96h-12v775
h205zM942 901v150h-354v-150h354z" />
    <glyph glyph-name="three" unicode="3" 
d="M1260 174v471h-205v143h205v472h-205v204h-676v-204h-205v-267h266v205h553v-348h-409v-266h409v-348h-553v204h-266v-266h205v-202h676v202h205zM1311 1311v-13l96 -96v-561h-53l53 -53v-561h-205v-202h-766l-96 96h-12v106h-97l-96 96h-12v369h369v-13l96 -96v-96h354
v149h-301l-96 96h-13v314h-301l-96 96h-12v369h205v205h778v-13l96 -96v-96h109zM942 901v150h-354v-150h354z" />
    <glyph glyph-name="four" unicode="4" 
d="M1260 379v266h-205v819h-267v-819h-348v615h-266v-881h614v-407h267v407h205zM1311 696v-12l96 -96v-357h-205v-406h-356l-96 96h-13v310h-506l-96 97h-12v983h369v-13l96 -96v-506h149v820h369v-13l96 -96v-711h109z" />
    <glyph glyph-name="five" unicode="5" 
d="M1260 174v471h-205v205h-615v348h820v266h-1086v-676h205v-204h614v-348h-553v204h-266v-266h205v-202h676v202h205zM1311 696v-12l96 -96v-561h-205v-202h-766l-96 96h-12v106h-97l-96 96h-12v369h258l-41 40h-12v109h-97l-96 96h-12v779h1188v-13l96 -96v-356h-819
v-150h518v-12l96 -96v-97h109zM942 287v149h-407l53 -53v-96h354z" />
    <glyph glyph-name="six" unicode="6" 
d="M993 236h-553v348h553v-348zM1260 174v471h-205v205h-615v348h553v-205h267v267h-205v204h-676v-204h-205v-1086h205v-202h676v202h205zM1311 696v-12l96 -96v-561h-205v-202h-766l-96 96h-12v106h-97l-96 96h-12v1188h205v205h778v-13l96 -96v-96h109v-13l96 -96v-356
h-258l53 -53v-97h109zM995 901l-41 41h-12v109h-354v-150h407zM942 287v149h-354v-149h354z" />
    <glyph glyph-name="seven" unicode="7" 
d="M1260 993v471h-1086v-266h819v-143h-205v-205h-204v-205h-205v-205h-205v-468h266v407h205v205h205v204h205v205h205zM123 1147v369h1188v-13l96 -96v-561h-205v-205h-205v-205h-204v-205h-205v-406h-357l-96 96h-12v571h205v204h204v205h205v150h-506l-96 96h-12z" />
    <glyph glyph-name="eight" unicode="8" 
d="M993 850h-553v348h553v-348zM993 236h-553v348h553v-348zM1260 174v471h-205v143h205v472h-205v204h-676v-204h-205v-472h205v-143h-205v-471h205v-202h676v202h205zM1311 1311v-13l96 -96v-561h-53l53 -53v-561h-205v-202h-766l-96 96h-12v106h-97l-96 96h-12v573h53
l-41 41h-12v574h205v205h778v-13l96 -96v-96h109zM942 901v150h-354v-150h354zM942 287v149h-354v-149h354z" />
    <glyph glyph-name="nine" unicode="9" 
d="M993 850h-553v348h553v-348zM1260 174v1086h-205v204h-676v-204h-205v-472h205v-204h614v-348h-553v204h-266v-266h205v-202h676v202h205zM1311 1311v-13l96 -96v-1175h-205v-202h-766l-96 96h-12v106h-97l-96 96h-12v369h258l-41 40h-12v109h-97l-96 96h-12v574h205v205
h778v-13l96 -96v-96h109zM942 287v149h-407l53 -53v-96h354zM942 901v150h-354v-150h354z" />
    <glyph glyph-name="colon" unicode=":" horiz-adv-x="614" 
d="M440 -28v264h-266v-264h266zM440 788v267h-266v-267h266zM492 1106v-12l96 -97v-356h-357l-96 96h-12v369h369zM492 287v-13l96 -96v-353h-357l-96 96h-12v366h369z" />
    <glyph glyph-name="semicolon" unicode=";" horiz-adv-x="614" 
d="M440 788v267h-266v-267h266zM440 -130v366h-266v-264h102v-102h164zM135 -79h-12v366h369v-13l96 -96v-456h-254l-96 97h-13v12zM492 1106v-12l96 -97v-356h-357l-96 96h-12v369h369z" />
    <glyph glyph-name="less" unicode="&#x3c;" horiz-adv-x="1024" 
d="M850 174v266h-205v205h-205v143h205v205h205v267h-266v-205h-205v-205h-205v-266h205v-205h205v-205h266zM436 231l-96 97h-12v108h-97l-96 96h-12v369h205v205h204v205h369v-13l96 -96v-356h-204v-205h-54l54 -53v-96h108v-13l96 -96v-356h-356l-96 96h-13v108h-96z" />
    <glyph glyph-name="equal" unicode="=" horiz-adv-x="1024" 
d="M850 379v266h-676v-266h676zM850 788v267h-676v-267h676zM901 1106v-12l96 -97v-356h-53l53 -53v-357h-766l-96 97h-12v368h53l-41 41h-12v369h778z" />
    <glyph glyph-name="greater" unicode="&#x3e;" horiz-adv-x="1024" 
d="M850 584v266h-205v205h-205v205h-266v-267h205v-205h205v-143h-205v-205h-205v-266h266v205h205v205h205zM901 901v-12l96 -96v-357h-204v-205h-205v-204h-357l-96 96h-12v369h205v204h53l-41 41h-12v109h-97l-96 96h-12v369h369v-13l96 -96v-96h108v-12l97 -97v-96h108z
" />
    <glyph glyph-name="question" unicode="?" 
d="M440 -28v264h-266v-264h266zM1260 788v472h-205v204h-676v-204h-205v-267h266v205h553v-348h-614v-205h-205v-266h266v205h615v204h205zM176 287l-41 41h-12v368h205v150h-97l-96 96h-12v369h205v205h778v-13l96 -96v-96h109v-13l96 -96v-561h-205v-205h-614v-205h-53
l53 -53v-353h-357l-96 96h-12v366h53zM942 901v150h-354v-150h354z" />
    <glyph glyph-name="at" unicode="@" 
d="M891 492h-348v143h348v-143zM1055 430v574h-103v102h-573v-164h512v-143h-410v-103h-102v-266h102v-102h471v102h103zM1096 236h-758v962h758v-962zM1260 174v1086h-103v102h-881v-102h-102v-1086h102v-102h881v102h103zM225 20v13l-90 90h-12v1188h102v102h983v-12
l90 -90h13v-13l96 -96v-1175h-102v-102h-971l-96 95h-13z" />
    <glyph glyph-name="A" unicode="A" 
d="M993 645h-553v553h553v-553zM1260 -28v1288h-205v204h-676v-204h-205v-1288h266v407h553v-407h267zM588 231v-406h-357l-96 96h-12v1390h205v205h778v-13l96 -96v-96h109v-13l96 -96v-1377h-356l-97 96h-12v310h-354zM942 696v355h-354v-355h354z" />
    <glyph glyph-name="B" unicode="B" 
d="M993 850h-553v348h553v-348zM993 236h-553v348h553v-348zM1260 174v471h-205v143h205v472h-205v204h-881v-1492h881v202h205zM1311 1311v-13l96 -96v-561h-53l53 -53v-561h-205v-202h-971l-96 96h-12v1595h983v-13l96 -96v-96h109zM942 901v150h-354v-150h354zM942 287
v149h-354v-149h354z" />
    <glyph glyph-name="C" unicode="C" 
d="M1260 174v266h-267v-204h-553v962h553v-205h267v267h-205v204h-676v-204h-205v-1086h205v-202h676v202h205zM942 287v205h369v-13l96 -96v-356h-205v-202h-766l-96 96h-12v106h-97l-96 96h-12v1188h205v205h778v-13l96 -96v-96h109v-13l96 -96v-356h-356l-97 96h-12v109
h-354v-764h354z" />
    <glyph glyph-name="D" unicode="D" 
d="M993 236h-553v962h553v-962zM1260 174v1086h-205v204h-881v-1492h881v202h205zM1311 1311v-13l96 -96v-1175h-205v-202h-971l-96 96h-12v1595h983v-13l96 -96v-96h109zM942 287v764h-354v-764h354z" />
    <glyph glyph-name="E" unicode="E" 
d="M1260 -28v264h-820v348h820v266h-820v348h820v266h-1086v-1492h1086zM1311 1516v-13l96 -96v-356h-819v-150h723v-12l96 -96v-357h-819v-149h723v-13l96 -96v-353h-1176l-96 96h-12v1595h1188z" />
    <glyph glyph-name="F" unicode="F" 
d="M1260 584v266h-820v348h820v266h-1086v-1492h266v612h820zM1311 901v-12l96 -96v-357h-819v-611h-357l-96 96h-12v1595h1188v-13l96 -96v-356h-819v-150h723z" />
    <glyph glyph-name="G" unicode="G" 
d="M1260 -28v878h-472v-266h205v-348h-553v962h553v-205h267v267h-205v204h-676v-204h-205v-1086h205v-202h881zM231 27l-96 96h-12v1188h205v205h778v-13l96 -96v-96h109v-13l96 -96v-356h-53l53 -53v-968h-971l-96 96h-12v106h-97zM737 532v369h258l-41 41h-12v109h-354
v-764h354v149h-96l-96 96h-13z" />
    <glyph glyph-name="H" unicode="H" 
d="M1260 -28v1492h-267v-614h-553v614h-266v-1492h266v612h553v-612h267zM588 436v-611h-357l-96 96h-12v1595h369v-13l96 -96v-506h354v615h369v-13l96 -96v-1582h-356l-97 96h-12v515h-354z" />
    <glyph glyph-name="I" unicode="I" horiz-adv-x="614" 
d="M440 -28v1492h-266v-1492h266zM492 1516v-13l96 -96v-1582h-357l-96 96h-12v1595h369z" />
    <glyph glyph-name="J" unicode="J" 
d="M1260 174v1290h-267v-1228h-553v204h-266v-266h205v-202h676v202h205zM942 287v1229h369v-13l96 -96v-1380h-205v-202h-766l-96 96h-12v106h-97l-96 96h-12v369h369v-13l96 -96v-96h354z" />
    <glyph glyph-name="K" unicode="K" 
d="M1260 -28v264h-205v204h-205v205h-205v143h205v205h205v205h205v266h-267v-204h-205v-205h-204v-205h-144v614h-266v-1492h266v612h144v-205h204v-205h205v-202h267zM846 27l-96 96h-13v108h-96l-53 54v-460h-357l-96 96h-12v1595h369v-13l96 -96v-301h149v205h205v205
h369v-13l96 -96v-356h-205v-205h-205v-205h-53l53 -53v-96h109v-13l96 -96v-96h109v-13l96 -96v-353h-356l-97 96h-12v106h-96z" />
    <glyph glyph-name="L" unicode="L" 
d="M1260 -28v264h-820v1228h-266v-1492h1086zM492 1516v-13l96 -96v-1120h723v-13l96 -96v-353h-1176l-96 96h-12v1595h369z" />
    <glyph glyph-name="M" unicode="M" horiz-adv-x="1843" 
d="M1669 -28v1492h-266v-204h-205v-205h-205v-205h-143v205h-205v205h-205v204h-266v-1492h266v1021h144v-205h204v-816h267v816h205v205h143v-1021h266zM1202 641v-816h-356l-96 96h-13v720h-96l-53 53v-869h-357l-96 96h-12v1595h369v-13l96 -96v-96h108v-13l97 -96v-96
h108v-12l41 -41v53h205v205h205v205h368v-13l97 -96v-1582h-357l-96 96h-12v720h-150z" />
    <glyph glyph-name="N" unicode="N" 
d="M1260 -28v1492h-267v-614h-143v205h-205v205h-205v204h-266v-1492h266v1021h144v-205h204v-204h205v-612h267zM846 436l-96 96h-13v109h-96l-53 53v-869h-357l-96 96h-12v1595h369v-13l96 -96v-96h108v-13l97 -96v-96h108v-12l41 -41v463h369v-13l96 -96v-1582h-356
l-97 96h-12v515h-96z" />
    <glyph glyph-name="O" unicode="O" 
d="M993 236h-553v962h553v-962zM1260 174v1086h-205v204h-676v-204h-205v-1086h205v-202h676v202h205zM1311 1311v-13l96 -96v-1175h-205v-202h-766l-96 96h-12v106h-97l-96 96h-12v1188h205v205h778v-13l96 -96v-96h109zM942 287v764h-354v-764h354z" />
    <glyph glyph-name="P" unicode="P" 
d="M993 850h-553v348h553v-348zM1260 788v472h-205v204h-881v-1492h266v612h615v204h205zM1311 1311v-13l96 -96v-561h-205v-205h-614v-611h-357l-96 96h-12v1595h983v-13l96 -96v-96h109zM942 901v150h-354v-150h354z" />
    <glyph glyph-name="Q" unicode="Q" 
d="M993 440h-143v205h-266v-266h204v-143h-348v962h553v-758zM1260 174v1086h-205v204h-676v-204h-205v-1086h205v-202h676v202h205zM1311 1311v-13l96 -96v-1175h-205v-202h-766l-96 96h-12v106h-97l-96 96h-12v1188h205v205h778v-13l96 -96v-96h109zM942 643v408h-354
v-355h313v-12z" />
    <glyph glyph-name="R" unicode="R" 
d="M993 850h-553v348h553v-348zM1260 -28v264h-205v204h-205v144h205v204h205v472h-205v204h-881v-1492h266v612h144v-205h204v-205h205v-202h267zM846 27l-96 96h-13v108h-96l-53 54v-460h-357l-96 96h-12v1595h983v-13l96 -96v-96h109v-13l96 -96v-561h-205v-205h-53
l53 -53v-96h109v-13l96 -96v-353h-356l-97 96h-12v106h-96zM942 901v150h-354v-150h354z" />
    <glyph glyph-name="S" unicode="S" 
d="M1260 174v471h-205v205h-615v348h553v-205h267v267h-205v204h-676v-204h-205v-472h205v-204h614v-348h-553v204h-266v-266h205v-202h676v202h205zM1311 696v-12l96 -96v-561h-205v-202h-766l-96 96h-12v106h-97l-96 96h-12v369h258l-41 40h-12v109h-97l-96 96h-12v574
h205v205h778v-13l96 -96v-96h109v-13l96 -96v-356h-258l53 -53v-97h109zM942 287v149h-407l53 -53v-96h354zM995 901l-41 41h-12v109h-354v-150h407z" />
    <glyph glyph-name="T" unicode="T" 
d="M1260 1198v266h-1086v-266h410v-1226h266v1226h410zM123 1147v369h1188v-13l96 -96v-356h-410v-1226h-356l-96 96h-13v1130h-301l-96 96h-12z" />
    <glyph glyph-name="U" unicode="U" 
d="M1260 174v1290h-267v-1228h-553v1228h-266v-1290h205v-202h676v202h205zM942 287v1229h369v-13l96 -96v-1380h-205v-202h-766l-96 96h-12v106h-97l-96 96h-12v1393h369v-13l96 -96v-1120h354z" />
    <glyph glyph-name="V" unicode="V" 
d="M1260 584v880h-267v-819h-205v-409h-143v409h-205v819h-266v-880h205v-410h205v-202h266v202h205v410h205zM696 696v-12l41 -41v53h205v820h369v-13l96 -96v-971h-205v-409h-205v-202h-356l-96 96h-13v106h-96l-96 96h-12v313h-97l-96 96h-12v984h369v-13l96 -96v-711
h108z" />
    <glyph glyph-name="W" unicode="W" horiz-adv-x="2253" 
d="M2079 584v880h-267v-819h-204v-409h-144v409h-204v819h-267v-819h-205v-409h-143v409h-205v819h-266v-880h205v-410h205v-202h266v202h205v410h143v-410h205v-202h266v202h205v410h205zM1516 696v-12l40 -41v53h205v820h369v-13l96 -96v-971h-205v-409h-204v-202h-357
l-96 96h-12v106h-97l-53 53v-53h-205v-202h-356l-96 96h-13v106h-96l-96 96h-12v313h-97l-96 96h-12v984h369v-13l96 -96v-711h108v-12l41 -41v53h205v820h369v-13l96 -96v-711h109z" />
    <glyph glyph-name="X" unicode="X" 
d="M1260 -28v468h-205v205h-205v143h205v205h205v471h-267v-409h-205v-205h-143v205h-205v409h-266v-471h205v-205h205v-143h-205v-205h-205v-468h266v407h205v205h143v-205h205v-407h267zM846 231l-53 54v-54h-205v-406h-357l-96 96h-12v571h205v204h53l-41 41h-12v109h-97
l-96 96h-12v574h369v-13l96 -96v-301h108v-12l41 -41v53h205v410h369v-13l96 -96v-561h-205v-205h-53l53 -53v-96h109v-13l96 -96v-558h-356l-97 96h-12v310h-96z" />
    <glyph glyph-name="Y" unicode="Y" 
d="M1260 788v676h-267v-614h-205v-205h-143v205h-205v614h-266v-676h205v-204h205v-612h266v612h205v204h205zM696 901v-12l41 -41v53h205v615h369v-13l96 -96v-766h-205v-205h-205v-611h-356l-96 96h-13v515h-96l-96 96h-12v109h-97l-96 96h-12v779h369v-13l96 -96v-506
h108z" />
    <glyph glyph-name="Z" unicode="Z" 
d="M1260 -28v264h-820v143h205v205h205v204h205v205h205v471h-1086v-266h819v-143h-205v-205h-204v-205h-205v-205h-205v-468h1086zM328 492v204h204v205h205v150h-506l-96 96h-12v369h1188v-13l96 -96v-561h-205v-205h-205v-205h-204v-149h518v-13l96 -96v-353h-1176
l-96 96h-12v571h205z" />
    <glyph glyph-name="bracketleft" unicode="[" horiz-adv-x="819" 
d="M645 -232v263h-205v1372h205v266h-471v-1901h471zM696 1720v-12l97 -96v-357h-205v-1173h108v-12l97 -96v-354h-562l-96 96h-12v2004h573z" />
    <glyph glyph-name="backslash" unicode="\" 
d="M1260 -232v468h-205v409h-205v205h-205v410h-205v409h-266v-471h205v-410h205v-204h204v-410h205v-406h267zM846 27l-96 96h-13v313h-96l-96 96h-13v109h-96l-96 96h-12v314h-97l-96 96h-12v573h369v-12l96 -96v-301h108v-13l97 -96v-301h108v-12l96 -96v-97h109v-12
l96 -96v-301h109v-13l96 -96v-558h-356l-97 96h-12v311h-96z" />
    <glyph glyph-name="bracketright" unicode="]" horiz-adv-x="819" 
d="M645 -232v1901h-471v-266h205v-1372h-205v-263h471zM328 82v1173h-97l-96 97h-12v368h573v-12l97 -96v-1992h-562l-96 96h-12v366h205z" />
    <glyph glyph-name="asciicircum" unicode="^" horiz-adv-x="922" 
d="M748 1096v164h-103v102h-102v102h-164v-102h-103v-102h-102v-164h164v102h102v102h41v-102h103v-102h164zM485 1051v-103h-254l-96 96h-12v267h102v102h103v103h266v-13l90 -90h12v-12l90 -90h13v-13l96 -96v-254h-254l-96 96h-13v7h-47z" />
    <glyph glyph-name="underscore" unicode="_" horiz-adv-x="819" 
d="M850 -232v263h-878v-263h878zM901 82v-12l96 -96v-354h-968l-96 96h-12v366h980z" />
    <glyph glyph-name="grave" unicode="`" horiz-adv-x="717" 
d="M543 1505v164h-103v103h-102v102h-164v-164h102v-102h103v-103h164zM238 1556h-13v13l-90 90h-12v266h266v-12l90 -90h13v-13l90 -90h12v-12l96 -96v-254h-254l-96 96h-12v12z" />
    <glyph glyph-name="a" unicode="a" 
d="M993 236h-553v143h553v-143zM1260 174v676h-205v205h-881v-267h819v-143h-614v-205h-205v-266h205v-202h676v202h205zM1311 901v-12l96 -96v-766h-205v-202h-766l-96 96h-12v106h-97l-96 96h-12v369h205v149h-97l-96 96h-12v369h983v-12l96 -97v-96h109z" />
    <glyph glyph-name="b" unicode="b" 
d="M993 236h-553v552h553v-552zM1260 174v676h-205v205h-615v409h-266v-1492h881v202h205zM1311 901v-12l96 -96v-766h-205v-202h-971l-96 96h-12v1595h369v-13l96 -96v-301h518v-12l96 -97v-96h109zM942 287v354h-354v-354h354z" />
    <glyph glyph-name="c" unicode="c" 
d="M1260 -28v264h-820v552h820v267h-881v-205h-205v-676h205v-202h881zM231 27l-96 96h-12v778h205v205h983v-12l96 -97v-356h-819v-354h723v-13l96 -96v-353h-971l-96 96h-12v106h-97z" />
    <glyph glyph-name="d" unicode="d" 
d="M993 236h-553v552h553v-552zM1260 -28v1492h-267v-409h-614v-205h-205v-676h205v-202h881zM231 27l-96 96h-12v778h205v205h614v410h369v-13l96 -96v-1582h-971l-96 96h-12v106h-97zM942 287v354h-354v-354h354z" />
    <glyph glyph-name="e" unicode="e" 
d="M993 645h-553v143h553v-143zM1260 -28v264h-820v143h615v205h205v266h-205v205h-676v-205h-205v-676h205v-202h881zM231 27l-96 96h-12v778h205v205h778v-12l96 -97v-96h109v-12l96 -96v-357h-205v-149h109v-13l96 -96v-353h-971l-96 96h-12v106h-97z" />
    <glyph glyph-name="f" unicode="f" horiz-adv-x="1229" 
d="M1055 1403v266h-471v-205h-205v-409h-205v-267h205v-816h266v816h205v267h-205v348h410zM123 737v369h205v410h204v204h574v-12l96 -96v-357h-409v-149h108v-12l96 -97v-356h-204v-816h-357l-96 96h-12v720h-97l-96 96h-12z" />
    <glyph glyph-name="g" unicode="g" 
d="M993 236h-553v552h553v-552zM1260 -437v1492h-881v-205h-205v-676h205v-202h614v-143h-614v-266h881zM381 -120l-41 41h-12v106h-97l-96 96h-12v778h205v205h983v-12l96 -97v-1582h-971l-96 97h-12v368h53zM942 287v354h-354v-354h354z" />
    <glyph glyph-name="h" unicode="h" 
d="M1260 -28v878h-205v205h-615v409h-266v-1492h266v816h553v-816h267zM588 641v-816h-357l-96 96h-12v1595h369v-13l96 -96v-301h518v-12l96 -97v-96h109v-12l96 -96v-968h-356l-97 96h-12v720h-354z" />
    <glyph glyph-name="i" unicode="i" horiz-adv-x="614" 
d="M440 1198v266h-266v-266h266zM440 -28v1083h-266v-1083h266zM492 1516v-13l96 -96v-356h-53l53 -54v-1172h-357l-96 96h-12v1185h53l-41 41h-12v369h369z" />
    <glyph glyph-name="j" unicode="j" horiz-adv-x="1229" 
d="M1055 1198v266h-267v-266h267zM1055 -232v1287h-267v-1226h-348v202h-266v-263h205v-205h471v205h205zM1106 1516v-13l96 -96v-356h-53l53 -54v-1377h-205v-205h-561l-96 97h-12v108h-97l-96 96h-12v366h369v-12l96 -96v-94h149v1226h54l-41 41h-13v369h369z" />
    <glyph glyph-name="k" unicode="k" 
d="M1260 -28v264h-205v204h-205v144h205v204h205v267h-267v-205h-205v-205h-348v819h-266v-1492h266v407h348v-205h205v-202h267zM846 27l-96 96h-13v108h-149v-406h-357l-96 96h-12v1595h369v-13l96 -96v-711h149v205h205v205h369v-12l96 -97v-356h-205v-205h-53l53 -53
v-96h109v-13l96 -96v-353h-356l-97 96h-12v106h-96z" />
    <glyph glyph-name="l" unicode="l" horiz-adv-x="614" 
d="M440 -28v1492h-266v-1492h266zM492 1516v-13l96 -96v-1582h-357l-96 96h-12v1595h369z" />
    <glyph glyph-name="m" unicode="m" horiz-adv-x="1843" 
d="M1669 -28v878h-205v205h-471v-205h-143v205h-676v-1083h266v816h348v-816h267v816h348v-816h266zM1202 641v-816h-356l-96 96h-13v720h-149v-816h-357l-96 96h-12v1185h778v-12l41 -41v53h574v-12l96 -97v-96h108v-12l97 -96v-968h-357l-96 96h-12v720h-150z" />
    <glyph glyph-name="n" unicode="n" 
d="M1260 -28v878h-205v205h-881v-1083h266v816h553v-816h267zM588 641v-816h-357l-96 96h-12v1185h983v-12l96 -97v-96h109v-12l96 -96v-968h-356l-97 96h-12v720h-354z" />
    <glyph glyph-name="o" unicode="o" 
d="M993 236h-553v552h553v-552zM1260 174v676h-205v205h-676v-205h-205v-676h205v-202h676v202h205zM1311 901v-12l96 -96v-766h-205v-202h-766l-96 96h-12v106h-97l-96 96h-12v778h205v205h778v-12l96 -97v-96h109zM942 287v354h-354v-354h354z" />
    <glyph glyph-name="p" unicode="p" 
d="M993 236h-553v552h553v-552zM1260 174v676h-205v205h-881v-1492h266v409h615v202h205zM1311 901v-12l96 -96v-766h-205v-202h-614v-410h-357l-96 97h-12v1594h983v-12l96 -97v-96h109zM942 287v354h-354v-354h354z" />
    <glyph glyph-name="q" unicode="q" 
d="M993 236h-553v552h553v-552zM1260 -437v1492h-881v-205h-205v-676h205v-202h614v-409h267zM436 -175l-96 96h-12v106h-97l-96 96h-12v778h205v205h983v-12l96 -97v-1582h-356l-97 97h-12v313h-506zM942 287v354h-354v-354h354z" />
    <glyph glyph-name="r" unicode="r" horiz-adv-x="1229" 
d="M1055 584v266h-205v205h-676v-1083h266v816h348v-204h267zM588 641v-816h-357l-96 96h-12v1185h778v-12l96 -97v-96h109v-12l96 -96v-357h-356l-96 96h-13v109h-149z" />
    <glyph glyph-name="s" unicode="s" 
d="M1260 174v266h-205v205h-615v143h820v267h-881v-205h-205v-266h205v-205h614v-143h-819v-264h881v202h205zM1311 492v-13l96 -96v-356h-205v-202h-971l-96 96h-12v366h258l-41 41h-12v108h-97l-96 96h-12v369h205v205h983v-12l96 -97v-356h-258l53 -53v-96h109z" />
    <glyph glyph-name="t" unicode="t" horiz-adv-x="1024" 
d="M850 788v267h-205v409h-266v-409h-205v-267h205v-816h266v816h205zM901 1106v-12l96 -97v-356h-204v-816h-357l-96 96h-12v720h-97l-96 96h-12v369h205v410h368v-13l97 -96v-301h108z" />
    <glyph glyph-name="u" unicode="u" 
d="M1260 -28v1083h-267v-819h-553v819h-266v-881h205v-202h881zM231 27l-96 96h-12v983h369v-12l96 -97v-710h354v819h369v-12l96 -97v-1172h-971l-96 96h-12v106h-97z" />
    <glyph glyph-name="v" unicode="v" 
d="M1260 584v471h-267v-410h-205v-409h-143v409h-205v410h-266v-471h205v-410h205v-202h266v202h205v410h205zM696 696v-12l41 -41v53h205v410h369v-12l96 -97v-561h-205v-409h-205v-202h-356l-96 96h-13v106h-96l-96 96h-12v313h-97l-96 96h-12v574h369v-12l96 -97v-301
h108z" />
    <glyph glyph-name="w" unicode="w" horiz-adv-x="2253" 
d="M2079 584v471h-267v-410h-204v-409h-144v409h-204v410h-267v-410h-205v-409h-143v409h-205v410h-266v-471h205v-410h205v-202h266v202h205v410h143v-410h205v-202h266v202h205v410h205zM1516 696v-12l40 -41v53h205v410h369v-12l96 -97v-561h-205v-409h-204v-202h-357
l-96 96h-12v106h-97l-53 53v-53h-205v-202h-356l-96 96h-13v106h-96l-96 96h-12v313h-97l-96 96h-12v574h369v-12l96 -97v-301h108v-12l41 -41v53h205v410h369v-12l96 -97v-301h109z" />
    <glyph glyph-name="x" unicode="x" 
d="M1260 -28v264h-205v204h-205v144h205v204h205v267h-267v-205h-205v-205h-143v205h-205v205h-266v-267h205v-204h205v-144h-205v-204h-205v-264h266v202h205v205h143v-205h205v-202h267zM846 27l-53 53v-53h-205v-202h-357l-96 96h-12v366h205v205h53l-41 40h-12v109h-97
l-96 96h-12v369h369v-12l96 -97v-96h108v-12l41 -41v53h205v205h369v-12l96 -97v-356h-205v-205h-53l53 -53v-96h109v-13l96 -96v-353h-356l-97 96h-12v106h-96z" />
    <glyph glyph-name="y" unicode="y" 
d="M1260 -437v1492h-267v-819h-553v819h-266v-881h205v-202h614v-143h-614v-266h881zM381 -120l-41 41h-12v106h-97l-96 96h-12v983h369v-12l96 -97v-710h354v819h369v-12l96 -97v-1582h-971l-96 97h-12v368h53z" />
    <glyph glyph-name="z" unicode="z" 
d="M1260 -28v264h-820v143h615v205h205v471h-1086v-267h819v-143h-614v-205h-205v-468h1086zM328 492v149h-97l-96 96h-12v369h1188v-12l96 -97v-561h-205v-149h109v-13l96 -96v-353h-1176l-96 96h-12v571h205z" />
    <glyph glyph-name="braceleft" unicode="{" horiz-adv-x="1229" 
d="M1055 -232v263h-205v409h-205v553h205v410h205v266h-267v-205h-204v-409h-205v-205h-205v-266h205v-205h205v-407h204v-204h267zM641 -175l-96 96h-13v310h-96l-96 97h-12v108h-97l-96 96h-12v369h205v205h204v410h205v204h369v-12l96 -96v-357h-205v-409h-204v-354h108
v-13l96 -96v-301h109v-12l96 -96v-354h-356l-96 96h-13v109h-96z" />
    <glyph glyph-name="bar" unicode="|" horiz-adv-x="614" 
d="M440 -232v1901h-266v-1901h266zM492 1720v-12l96 -96v-1992h-357l-96 96h-12v2004h369z" />
    <glyph glyph-name="braceright" unicode="}" horiz-adv-x="1229" 
d="M1055 584v266h-205v205h-205v409h-205v205h-266v-266h205v-410h205v-553h-205v-409h-205v-263h266v204h205v407h205v205h205zM1106 901v-12l96 -96v-357h-205v-205h-204v-406h-205v-205h-357l-96 96h-12v366h205v410h204v354h-96l-96 96h-12v313h-97l-96 97h-12v368h369
v-12l96 -96v-96h108v-13l97 -96v-301h108v-12l96 -97v-96h109z" />
    <glyph glyph-name="asciitilde" unicode="~" horiz-adv-x="1126" 
d="M952 1300v164h-164v-102h-102v-102h-41v102h-102v102h-164v-102h-103v-102h-102v-164h164v102h102v102h41v-102h103v-102h164v102h102v102h102zM123 1044v267h102v102h103v103h266v-13l90 -90h53v103h267v-13l96 -96v-254h-103v-102h-102v-103h-254l-96 96h-13v7h-47
v-103h-254l-96 96h-12z" />
    <glyph glyph-name="Adieresis" unicode="&#xc4;" 
d="M993 645h-553v553h553v-553zM1260 -28v1288h-205v204h-676v-204h-205v-1288h266v407h553v-407h267zM588 231v-406h-357l-96 96h-12v1390h205v205h778v-13l96 -96v-96h109v-13l96 -96v-1377h-356l-97 96h-12v310h-354zM942 696v355h-354v-355h354zM696 1608v164h-164v-164
h164zM901 1608v164h-164v-164h164zM952 1823v-13l96 -96v-254h-459l-96 96h-12v267h471z" />
    <glyph glyph-name="Aring" unicode="&#xc5;" 
d="M737 1669h-41v41h41v-41zM901 1608v164h-103v102h-164v-102h-102v-164h102v-103h164v103h103zM583 1454v12l-90 90h-12v267h102v102h267v-12l90 -90h12v-13l96 -96v-254h-102v-102h-254l-96 96h-13zM993 645h-553v553h553v-553zM1260 -28v1288h-205v204h-676v-204h-205
v-1288h266v407h553v-407h267zM588 231v-406h-357l-96 96h-12v1390h205v205h778v-13l96 -96v-96h109v-13l96 -96v-1377h-356l-97 96h-12v310h-354zM942 696v355h-354v-355h354z" />
    <glyph glyph-name="Eacute" unicode="&#xc9;" 
d="M1260 -28v264h-820v348h820v266h-820v348h820v266h-1086v-1492h1086zM1311 1516v-13l96 -96v-356h-819v-150h723v-12l96 -96v-357h-819v-149h723v-13l96 -96v-353h-1176l-96 96h-12v1595h1188zM1055 1710v164h-164v-102h-103v-103h-102v-164h164v103h102v102h103z
M635 1454v266h102v103h103v102h266v-12l96 -96v-254h-102v-103h-103v-102h-254l-96 96h-12z" />
    <glyph glyph-name="Ntilde" unicode="&#xd1;" 
d="M1260 -28v1492h-267v-614h-143v205h-205v205h-205v204h-266v-1492h266v1021h144v-205h204v-204h205v-612h267zM846 436l-96 96h-13v109h-96l-53 53v-869h-357l-96 96h-12v1595h369v-13l96 -96v-96h108v-13l97 -96v-96h108v-12l41 -41v463h369v-13l96 -96v-1582h-356
l-97 96h-12v515h-96zM1106 1710v164h-164v-102h-102v-103h-41v103h-102v102h-164v-102h-103v-103h-102v-164h164v103h102v102h41v-102h103v-103h164v103h102v102h102zM277 1454v266h102v103h103v102h266v-12l90 -90h53v102h267v-12l96 -96v-254h-103v-103h-102v-102h-254
l-96 96h-13v6h-47v-102h-254l-96 96h-12z" />
    <glyph glyph-name="Odieresis" unicode="&#xd6;" 
d="M993 236h-553v962h553v-962zM1260 174v1086h-205v204h-676v-204h-205v-1086h205v-202h676v202h205zM1311 1311v-13l96 -96v-1175h-205v-202h-766l-96 96h-12v106h-97l-96 96h-12v1188h205v205h778v-13l96 -96v-96h109zM942 287v764h-354v-764h354zM696 1608v164h-164
v-164h164zM901 1608v164h-164v-164h164zM952 1823v-13l96 -96v-254h-459l-96 96h-12v267h471z" />
    <glyph glyph-name="Udieresis" unicode="&#xdc;" 
d="M696 1608v164h-164v-164h164zM901 1608v164h-164v-164h164zM952 1823v-13l96 -96v-254h-459l-96 96h-12v267h471zM1260 174v1290h-267v-1228h-553v1228h-266v-1290h205v-202h676v202h205zM942 287v1229h369v-13l96 -96v-1380h-205v-202h-766l-96 96h-12v106h-97l-96 96
h-12v1393h369v-13l96 -96v-1120h354z" />
    <glyph glyph-name="aacute" unicode="&#xe1;" 
d="M993 236h-553v143h553v-143zM1260 174v676h-205v205h-881v-267h819v-143h-614v-205h-205v-266h205v-202h676v202h205zM1311 901v-12l96 -96v-766h-205v-202h-766l-96 96h-12v106h-97l-96 96h-12v369h205v149h-97l-96 96h-12v369h983v-12l96 -97v-96h109zM1055 1304v164
h-164v-102h-103v-103h-102v-164h164v103h102v102h103zM635 1048v266h102v103h103v102h266v-12l96 -96v-254h-102v-103h-103v-102h-254l-96 96h-12z" />
    <glyph glyph-name="agrave" unicode="&#xe0;" 
d="M748 1098v164h-103v103h-102v102h-164v-164h102v-102h103v-103h164zM443 1149h-13v13l-90 90h-12v266h266v-12l90 -90h13v-13l90 -90h12v-12l96 -96v-254h-254l-96 96h-12v12zM993 236h-553v143h553v-143zM1260 174v676h-205v205h-881v-267h819v-143h-614v-205h-205v-266
h205v-202h676v202h205zM1311 901v-12l96 -96v-766h-205v-202h-766l-96 96h-12v106h-97l-96 96h-12v369h205v149h-97l-96 96h-12v369h983v-12l96 -97v-96h109z" />
    <glyph glyph-name="acircumflex" unicode="&#xe2;" 
d="M1004 1098v164h-103v103h-102v102h-164v-102h-103v-103h-102v-164h164v103h102v102h41v-102h103v-103h164zM741 1053v-102h-254l-96 96h-12v266h102v103h103v102h266v-12l90 -90h12v-13l90 -90h13v-12l96 -96v-254h-254l-96 96h-13v6h-47zM993 236h-553v143h553v-143z
M1260 174v676h-205v205h-881v-267h819v-143h-614v-205h-205v-266h205v-202h676v202h205zM1311 901v-12l96 -96v-766h-205v-202h-766l-96 96h-12v106h-97l-96 96h-12v369h205v149h-97l-96 96h-12v369h983v-12l96 -97v-96h109z" />
    <glyph glyph-name="adieresis" unicode="&#xe4;" 
d="M696 1201v164h-164v-164h164zM901 1201v164h-164v-164h164zM952 1416v-13l96 -96v-254h-459l-96 96h-12v267h471zM993 236h-553v143h553v-143zM1260 174v676h-205v205h-881v-267h819v-143h-614v-205h-205v-266h205v-202h676v202h205zM1311 901v-12l96 -96v-766h-205v-202
h-766l-96 96h-12v106h-97l-96 96h-12v369h205v149h-97l-96 96h-12v369h983v-12l96 -97v-96h109z" />
    <glyph glyph-name="atilde" unicode="&#xe3;" 
d="M993 236h-553v143h553v-143zM1260 174v676h-205v205h-881v-267h819v-143h-614v-205h-205v-266h205v-202h676v202h205zM1311 901v-12l96 -96v-766h-205v-202h-766l-96 96h-12v106h-97l-96 96h-12v369h205v149h-97l-96 96h-12v369h983v-12l96 -97v-96h109zM1106 1304v164
h-164v-102h-102v-103h-41v103h-102v102h-164v-102h-103v-103h-102v-164h164v103h102v102h41v-102h103v-103h164v103h102v102h102zM277 1048v266h102v103h103v102h266v-12l90 -90h53v102h267v-12l96 -96v-254h-103v-103h-102v-102h-254l-96 96h-13v6h-47v-102h-254l-96 96
h-12z" />
    <glyph glyph-name="aring" unicode="&#xe5;" 
d="M737 1262h-41v41h41v-41zM901 1201v164h-103v102h-164v-102h-102v-164h102v-103h164v103h103zM583 1047v12l-90 90h-12v267h102v102h267v-12l90 -90h12v-13l96 -96v-254h-102v-102h-254l-96 96h-13zM993 236h-553v143h553v-143zM1260 174v676h-205v205h-881v-267h819
v-143h-614v-205h-205v-266h205v-202h676v202h205zM1311 901v-12l96 -96v-766h-205v-202h-766l-96 96h-12v106h-97l-96 96h-12v369h205v149h-97l-96 96h-12v369h983v-12l96 -97v-96h109z" />
    <glyph glyph-name="eacute" unicode="&#xe9;" 
d="M993 645h-553v143h553v-143zM1260 -28v264h-820v143h615v205h205v266h-205v205h-676v-205h-205v-676h205v-202h881zM231 27l-96 96h-12v778h205v205h778v-12l96 -97v-96h109v-12l96 -96v-357h-205v-149h109v-13l96 -96v-353h-971l-96 96h-12v106h-97zM1055 1304v164h-164
v-102h-103v-103h-102v-164h164v103h102v102h103zM635 1048v266h102v103h103v102h266v-12l96 -96v-254h-102v-103h-103v-102h-254l-96 96h-12z" />
    <glyph glyph-name="egrave" unicode="&#xe8;" 
d="M748 1098v164h-103v103h-102v102h-164v-164h102v-102h103v-103h164zM443 1149h-13v13l-90 90h-12v266h266v-12l90 -90h13v-13l90 -90h12v-12l96 -96v-254h-254l-96 96h-12v12zM993 645h-553v143h553v-143zM1260 -28v264h-820v143h615v205h205v266h-205v205h-676v-205
h-205v-676h205v-202h881zM231 27l-96 96h-12v778h205v205h778v-12l96 -97v-96h109v-12l96 -96v-357h-205v-149h109v-13l96 -96v-353h-971l-96 96h-12v106h-97z" />
    <glyph glyph-name="ecircumflex" unicode="&#xea;" 
d="M1004 1098v164h-103v103h-102v102h-164v-102h-103v-103h-102v-164h164v103h102v102h41v-102h103v-103h164zM741 1053v-102h-254l-96 96h-12v266h102v103h103v102h266v-12l90 -90h12v-13l90 -90h13v-12l96 -96v-254h-254l-96 96h-13v6h-47zM993 645h-553v143h553v-143z
M1260 -28v264h-820v143h615v205h205v266h-205v205h-676v-205h-205v-676h205v-202h881zM231 27l-96 96h-12v778h205v205h778v-12l96 -97v-96h109v-12l96 -96v-357h-205v-149h109v-13l96 -96v-353h-971l-96 96h-12v106h-97z" />
    <glyph glyph-name="edieresis" unicode="&#xeb;" 
d="M696 1201v164h-164v-164h164zM901 1201v164h-164v-164h164zM952 1416v-13l96 -96v-254h-459l-96 96h-12v267h471zM993 645h-553v143h553v-143zM1260 -28v264h-820v143h615v205h205v266h-205v205h-676v-205h-205v-676h205v-202h881zM231 27l-96 96h-12v778h205v205h778
v-12l96 -97v-96h109v-12l96 -96v-357h-205v-149h109v-13l96 -96v-353h-971l-96 96h-12v106h-97z" />
    <glyph glyph-name="iacute" unicode="&#xed;" horiz-adv-x="614" 
d="M543 1303v164h-164v-102h-103v-103h-102v-164h164v103h102v102h103zM123 1047v266h102v103h103v102h266v-12l96 -96v-254h-102v-103h-103v-102h-254l-96 96h-12zM440 -28v1083h-266v-1083h266zM492 1106v-12l96 -97v-1172h-357l-96 96h-12v1185h369z" />
    <glyph glyph-name="igrave" unicode="&#xec;" horiz-adv-x="614" 
d="M444 1098v164h-103v103h-102v102h-164v-164h102v-102h103v-103h164zM139 1149h-13v13l-90 90h-12v266h266v-12l90 -90h13v-13l90 -90h12v-12l96 -96v-254h-254l-96 96h-12v12zM440 -28v1083h-266v-1083h266zM492 1106v-12l96 -97v-1172h-357l-96 96h-12v1185h369z" />
    <glyph glyph-name="icircumflex" unicode="&#xee;" horiz-adv-x="614" 
d="M597 1098v164h-103v103h-102v102h-164v-102h-103v-103h-102v-164h164v103h102v102h41v-102h103v-103h164zM334 1053v-102h-254l-96 96h-12v266h102v103h103v102h266v-12l90 -90h12v-13l90 -90h13v-12l96 -96v-254h-254l-96 96h-13v6h-47zM440 -28v1083h-266v-1083h266z
M492 1106v-12l96 -97v-1172h-357l-96 96h-12v1185h369z" />
    <glyph glyph-name="idieresis" unicode="&#xef;" horiz-adv-x="614" 
d="M290 1201v164h-164v-164h164zM495 1201v164h-164v-164h164zM546 1416v-13l96 -96v-254h-459l-96 96h-12v267h471zM440 -28v1083h-266v-1083h266zM492 1106v-12l96 -97v-1172h-357l-96 96h-12v1185h369z" />
    <glyph glyph-name="ntilde" unicode="&#xf1;" 
d="M1260 -28v878h-205v205h-881v-1083h266v816h553v-816h267zM588 641v-816h-357l-96 96h-12v1185h983v-12l96 -97v-96h109v-12l96 -96v-968h-356l-97 96h-12v720h-354zM1106 1304v164h-164v-102h-102v-103h-41v103h-102v102h-164v-102h-103v-103h-102v-164h164v103h102v102
h41v-102h103v-103h164v103h102v102h102zM277 1048v266h102v103h103v102h266v-12l90 -90h53v102h267v-12l96 -96v-254h-103v-103h-102v-102h-254l-96 96h-13v6h-47v-102h-254l-96 96h-12z" />
    <glyph glyph-name="oacute" unicode="&#xf3;" 
d="M993 236h-553v552h553v-552zM1260 174v676h-205v205h-676v-205h-205v-676h205v-202h676v202h205zM1311 901v-12l96 -96v-766h-205v-202h-766l-96 96h-12v106h-97l-96 96h-12v778h205v205h778v-12l96 -97v-96h109zM942 287v354h-354v-354h354zM1055 1304v164h-164v-102
h-103v-103h-102v-164h164v103h102v102h103zM635 1048v266h102v103h103v102h266v-12l96 -96v-254h-102v-103h-103v-102h-254l-96 96h-12z" />
    <glyph glyph-name="ograve" unicode="&#xf2;" 
d="M748 1098v164h-103v103h-102v102h-164v-164h102v-102h103v-103h164zM443 1149h-13v13l-90 90h-12v266h266v-12l90 -90h13v-13l90 -90h12v-12l96 -96v-254h-254l-96 96h-12v12zM993 236h-553v552h553v-552zM1260 174v676h-205v205h-676v-205h-205v-676h205v-202h676v202
h205zM1311 901v-12l96 -96v-766h-205v-202h-766l-96 96h-12v106h-97l-96 96h-12v778h205v205h778v-12l96 -97v-96h109zM942 287v354h-354v-354h354z" />
    <glyph glyph-name="ocircumflex" unicode="&#xf4;" 
d="M1004 1098v164h-103v103h-102v102h-164v-102h-103v-103h-102v-164h164v103h102v102h41v-102h103v-103h164zM741 1053v-102h-254l-96 96h-12v266h102v103h103v102h266v-12l90 -90h12v-13l90 -90h13v-12l96 -96v-254h-254l-96 96h-13v6h-47zM993 236h-553v552h553v-552z
M1260 174v676h-205v205h-676v-205h-205v-676h205v-202h676v202h205zM1311 901v-12l96 -96v-766h-205v-202h-766l-96 96h-12v106h-97l-96 96h-12v778h205v205h778v-12l96 -97v-96h109zM942 287v354h-354v-354h354z" />
    <glyph glyph-name="odieresis" unicode="&#xf6;" 
d="M696 1201v164h-164v-164h164zM901 1201v164h-164v-164h164zM952 1416v-13l96 -96v-254h-459l-96 96h-12v267h471zM993 236h-553v552h553v-552zM1260 174v676h-205v205h-676v-205h-205v-676h205v-202h676v202h205zM1311 901v-12l96 -96v-766h-205v-202h-766l-96 96h-12
v106h-97l-96 96h-12v778h205v205h778v-12l96 -97v-96h109zM942 287v354h-354v-354h354z" />
    <glyph glyph-name="otilde" unicode="&#xf5;" 
d="M993 236h-553v552h553v-552zM1260 174v676h-205v205h-676v-205h-205v-676h205v-202h676v202h205zM1311 901v-12l96 -96v-766h-205v-202h-766l-96 96h-12v106h-97l-96 96h-12v778h205v205h778v-12l96 -97v-96h109zM942 287v354h-354v-354h354zM1106 1304v164h-164v-102
h-102v-103h-41v103h-102v102h-164v-102h-103v-103h-102v-164h164v103h102v102h41v-102h103v-103h164v103h102v102h102zM277 1048v266h102v103h103v102h266v-12l90 -90h53v102h267v-12l96 -96v-254h-103v-103h-102v-102h-254l-96 96h-13v6h-47v-102h-254l-96 96h-12z" />
    <glyph glyph-name="uacute" unicode="&#xfa;" 
d="M1260 -28v1083h-267v-819h-553v819h-266v-881h205v-202h881zM231 27l-96 96h-12v983h369v-12l96 -97v-710h354v819h369v-12l96 -97v-1172h-971l-96 96h-12v106h-97zM1055 1304v164h-164v-102h-103v-103h-102v-164h164v103h102v102h103zM635 1048v266h102v103h103v102h266
v-12l96 -96v-254h-102v-103h-103v-102h-254l-96 96h-12z" />
    <glyph glyph-name="ugrave" unicode="&#xf9;" 
d="M748 1098v164h-103v103h-102v102h-164v-164h102v-102h103v-103h164zM443 1149h-13v13l-90 90h-12v266h266v-12l90 -90h13v-13l90 -90h12v-12l96 -96v-254h-254l-96 96h-12v12zM1260 -28v1083h-267v-819h-553v819h-266v-881h205v-202h881zM231 27l-96 96h-12v983h369v-12
l96 -97v-710h354v819h369v-12l96 -97v-1172h-971l-96 96h-12v106h-97z" />
    <glyph glyph-name="ucircumflex" unicode="&#xfb;" 
d="M1004 1098v164h-103v103h-102v102h-164v-102h-103v-103h-102v-164h164v103h102v102h41v-102h103v-103h164zM741 1053v-102h-254l-96 96h-12v266h102v103h103v102h266v-12l90 -90h12v-13l90 -90h13v-12l96 -96v-254h-254l-96 96h-13v6h-47zM1260 -28v1083h-267v-819h-553
v819h-266v-881h205v-202h881zM231 27l-96 96h-12v983h369v-12l96 -97v-710h354v819h369v-12l96 -97v-1172h-971l-96 96h-12v106h-97z" />
    <glyph glyph-name="udieresis" unicode="&#xfc;" 
d="M696 1201v164h-164v-164h164zM901 1201v164h-164v-164h164zM952 1416v-13l96 -96v-254h-459l-96 96h-12v267h471zM1260 -28v1083h-267v-819h-553v819h-266v-881h205v-202h881zM231 27l-96 96h-12v983h369v-12l96 -97v-710h354v819h369v-12l96 -97v-1172h-971l-96 96h-12
v106h-97z" />
    <glyph glyph-name="degree" unicode="&#xb0;" horiz-adv-x="717" 
d="M379 1260h-41v40h41v-40zM543 1198v164h-103v102h-164v-102h-102v-164h102v-102h164v102h103zM225 1044v13l-90 90h-12v266h102v103h267v-13l90 -90h12v-12l96 -96v-254h-102v-103h-254l-96 96h-13z" />
    <glyph glyph-name="cent" unicode="&#xa2;" 
d="M686 645h-246v553h246v-553zM1260 379v266h-308v553h308v266h-308v205h-266v-205h-307v-204h-205v-676h205v-205h307v-205h266v205h308zM1311 696v-12l96 -96v-357h-307v-204h-357l-96 96h-12v108h-199l-96 97h-12v108h-97l-96 96h-12v779h205v205h307v204h369v-12
l96 -96v-96h211v-13l96 -96v-356h-307v-355h211zM635 696v355h-47v-355h47z" />
    <glyph glyph-name="bullet" 
d="M1260 379v676h-205v205h-676v-205h-205v-676h205v-205h676v205h205zM1311 1106v-12l96 -97v-766h-205v-204h-766l-96 96h-12v108h-97l-96 97h-12v778h205v205h778v-13l96 -96v-96h109z" />
    <glyph glyph-name="bullet" unicode="&#x2022;" 
d="M1260 379v676h-205v205h-676v-205h-205v-676h205v-205h676v205h205zM1311 1106v-12l96 -97v-766h-205v-204h-766l-96 96h-12v108h-97l-96 97h-12v778h205v205h778v-13l96 -96v-96h109z" />
    <glyph glyph-name="acute" unicode="&#xb4;" horiz-adv-x="717" 
d="M543 1710v164h-164v-102h-103v-103h-102v-164h164v103h102v102h103zM123 1454v266h102v103h103v102h266v-12l96 -96v-254h-102v-103h-103v-102h-254l-96 96h-12z" />
    <glyph glyph-name="dieresis" unicode="&#xa8;" horiz-adv-x="717" 
d="M338 1608v164h-164v-164h164zM543 1608v164h-164v-164h164zM594 1823v-13l96 -96v-254h-459l-96 96h-12v267h471z" />
    <glyph glyph-name="AE" unicode="&#xc6;" horiz-adv-x="1843" 
d="M788 850h-348v348h348v-348zM1669 -28v264h-614v348h614v266h-614v348h614v266h-1290v-204h-205v-1288h266v612h348v-612h881zM588 436v-611h-357l-96 96h-12v1390h205v205h1392v-13l97 -96v-356h-615v-150h518v-12l97 -96v-357h-615v-149h518v-13l97 -96v-353h-971
l-96 96h-13v515h-149zM737 901v150h-149v-150h149z" />
    <glyph glyph-name="Oslash" unicode="&#xd8;" 
d="M993 236h-553v962h553v-962zM1260 174v1086h-205v204h-676v-204h-205v-1086h205v-202h676v202h205zM1311 1311v-13l96 -96v-1175h-205v-202h-766l-96 96h-12v106h-97l-96 96h-12v1188h205v205h778v-13l96 -96v-96h109zM942 287v764h-354v-764h354z" />
    <glyph glyph-name="plusminus" unicode="&#xb1;" horiz-adv-x="1024" 
d="M850 -28v264h-676v-264h676zM850 584v266h-205v205h-266v-205h-205v-266h205v-205h266v205h205zM381 287l-41 41h-12v108h-97l-96 96h-12v369h205v205h368v-12l97 -97v-96h108v-12l96 -96v-357h-204v-149h108v-13l96 -96v-353h-766l-96 96h-12v366h258z" />
    <glyph glyph-name="yen" unicode="&#xa5;" 
d="M1260 174v164h-410v41h410v164h-410v41h205v204h205v676h-267v-614h-205v-205h-143v205h-205v614h-266v-676h205v-204h205v-41h-410v-164h410v-41h-410v-164h410v-202h266v202h410zM1311 594v-12l96 -97v-458h-410v-202h-356l-96 96h-13v106h-301l-96 96h-12v471h205v47
h-97l-96 96h-12v779h369v-13l96 -96v-506h108v-12l41 -41v53h205v615h369v-13l96 -96v-766h-205v-47h109z" />
    <glyph glyph-name="ae" unicode="&#xe6;" horiz-adv-x="1843" 
d="M788 236h-348v143h348v-143zM1403 236h-348v552h348v-552zM1669 174v676h-205v205h-471v-205h-143v205h-676v-267h614v-143h-409v-205h-205v-266h205v-202h471v202h143v-202h471v202h205zM1720 901v-12l97 -96v-766h-205v-202h-561l-54 53v-53h-561l-96 96h-12v106h-97
l-96 96h-12v369h205v149h-97l-96 96h-12v369h778v-12l41 -41v53h574v-12l96 -97v-96h108zM1352 287v354h-150v-354h150z" />
    <glyph glyph-name="oslash" unicode="&#xf8;" 
d="M993 236h-553v552h553v-552zM1260 174v676h-205v205h-676v-205h-205v-676h205v-202h676v202h205zM1311 901v-12l96 -96v-766h-205v-202h-766l-96 96h-12v106h-97l-96 96h-12v778h205v205h778v-12l96 -97v-96h109zM942 287v354h-354v-354h354z" />
    <glyph glyph-name="questiondown" unicode="&#xbf;" 
d="M1260 788v267h-267v-267h267zM1260 -232v263h-267v-202h-553v345h615v205h205v266h-267v-205h-614v-204h-205v-468h205v-205h676v205h205zM1311 1106v-12l96 -97v-356h-53l53 -53v-357h-205v-149h109v-12l96 -96v-354h-205v-205h-766l-96 97h-12v108h-97l-96 96h-12v571
h205v205h614v204h53l-41 41h-12v369h369zM942 -120v147h-354v-147h354z" />
    <glyph glyph-name="exclamdown" unicode="&#xa1;" horiz-adv-x="614" 
d="M440 788v267h-266v-267h266zM440 -437v1082h-266v-1082h266zM492 1106v-12l96 -97v-356h-53l53 -53v-1173h-357l-96 97h-12v1184h53l-41 41h-12v369h369z" />
    <glyph glyph-name="guillemotleft" unicode="&#xab;" 
d="M788 850h-143v143h143v-143zM584 645h-144v143h144v-143zM788 440h-143v144h143v-144zM1260 174v266h-205v205h-205v143h205v205h205v267h-267v-205h-143v205h-266v-205h-205v-205h-205v-266h205v-205h205v-205h266v205h143v-205h267zM1311 492v-13l96 -96v-356h-356
l-54 53v-53h-356l-96 96h-13v108h-96l-96 97h-12v108h-97l-96 96h-12v369h205v205h204v205h369v-13l41 -41v54h369v-13l96 -96v-356h-205v-205h-53l53 -53v-96h109z" />
    <glyph glyph-name="guillemotright" unicode="&#xbb;" 
d="M788 850h-143v143h143v-143zM993 645h-143v143h143v-143zM788 440h-143v144h143v-144zM1260 584v266h-205v205h-205v205h-266v-205h-144v205h-266v-267h205v-205h205v-143h-205v-205h-205v-266h266v205h144v-205h266v205h205v205h205zM1311 901v-12l96 -96v-357h-205
v-205h-205v-204h-356l-53 53v-53h-357l-96 96h-12v369h205v204h53l-41 41h-12v109h-97l-96 96h-12v369h369v-13l40 -41v54h369v-13l96 -96v-96h109v-12l96 -97v-96h109z" />
    <glyph glyph-name="ellipsis" unicode="&#x85;" 
d="M850 -28v264h-266v-264h266zM440 -28v264h-266v-264h266zM1260 -28v264h-267v-264h267zM492 287v-13l40 -41v54h369v-13l41 -41v54h369v-13l96 -96v-353h-356l-54 53v-53h-356l-53 53v-53h-357l-96 96h-12v366h369z" />
    <glyph glyph-name="ellipsis" unicode="&#x2026;" 
d="M850 -28v264h-266v-264h266zM440 -28v264h-266v-264h266zM1260 -28v264h-267v-264h267zM492 287v-13l40 -41v54h369v-13l41 -41v54h369v-13l96 -96v-353h-356l-54 53v-53h-356l-53 53v-53h-357l-96 96h-12v366h369z" />
    <glyph glyph-name="Agrave" unicode="&#xc0;" 
d="M993 645h-553v553h553v-553zM1260 -28v1288h-205v204h-676v-204h-205v-1288h266v407h553v-407h267zM588 231v-406h-357l-96 96h-12v1390h205v205h778v-13l96 -96v-96h109v-13l96 -96v-1377h-356l-97 96h-12v310h-354zM942 696v355h-354v-355h354zM748 1505v164h-103v103
h-102v102h-164v-164h102v-102h103v-103h164zM443 1556h-13v13l-90 90h-12v266h266v-12l90 -90h13v-13l90 -90h12v-12l96 -96v-254h-254l-96 96h-12v12z" />
    <glyph glyph-name="Atilde" unicode="&#xc3;" 
d="M1106 1710v164h-164v-102h-102v-103h-41v103h-102v102h-164v-102h-103v-103h-102v-164h164v103h102v102h41v-102h103v-103h164v103h102v102h102zM277 1454v266h102v103h103v102h266v-12l90 -90h53v102h267v-12l96 -96v-254h-103v-103h-102v-102h-254l-96 96h-13v6h-47
v-102h-254l-96 96h-12zM993 645h-553v553h553v-553zM1260 -28v1288h-205v204h-676v-204h-205v-1288h266v407h553v-407h267zM588 231v-406h-357l-96 96h-12v1390h205v205h778v-13l96 -96v-96h109v-13l96 -96v-1377h-356l-97 96h-12v310h-354zM942 696v355h-354v-355h354z" />
    <glyph glyph-name="Otilde" unicode="&#xd5;" 
d="M993 236h-553v962h553v-962zM1260 174v1086h-205v204h-676v-204h-205v-1086h205v-202h676v202h205zM1311 1311v-13l96 -96v-1175h-205v-202h-766l-96 96h-12v106h-97l-96 96h-12v1188h205v205h778v-13l96 -96v-96h109zM942 287v764h-354v-764h354zM1106 1710v164h-164
v-102h-102v-103h-41v103h-102v102h-164v-102h-103v-103h-102v-164h164v103h102v102h41v-102h103v-103h164v103h102v102h102zM277 1454v266h102v103h103v102h266v-12l90 -90h53v102h267v-12l96 -96v-254h-103v-103h-102v-102h-254l-96 96h-13v6h-47v-102h-254l-96 96h-12z
" />
    <glyph glyph-name="OE" horiz-adv-x="1843" 
d="M788 236h-348v962h348v-962zM1669 -28v264h-614v348h614v266h-614v348h614v266h-1290v-204h-205v-1086h205v-202h1290zM231 27l-96 96h-12v1188h205v205h1392v-13l97 -96v-356h-615v-150h518v-12l97 -96v-357h-615v-149h518v-13l97 -96v-353h-1381l-96 96h-12v106h-97z
M737 287v764h-149v-764h149z" />
    <glyph glyph-name="OE" unicode="&#x152;" horiz-adv-x="1843" 
d="M788 236h-348v962h348v-962zM1669 -28v264h-614v348h614v266h-614v348h614v266h-1290v-204h-205v-1086h205v-202h1290zM231 27l-96 96h-12v1188h205v205h1392v-13l97 -96v-356h-615v-150h518v-12l97 -96v-357h-615v-149h518v-13l97 -96v-353h-1381l-96 96h-12v106h-97z
M737 287v764h-149v-764h149z" />
    <glyph glyph-name="oe" horiz-adv-x="1843" 
d="M1403 645h-348v143h348v-143zM788 236h-348v552h348v-552zM1669 -28v264h-614v143h409v205h205v266h-205v205h-471v-205h-143v205h-471v-205h-205v-676h205v-202h471v202h143v-202h676zM1720 287v-13l97 -96v-353h-766l-54 53v-53h-561l-96 96h-12v106h-97l-96 96h-12
v778h205v205h573v-12l41 -41v53h574v-12l96 -97v-96h108v-12l97 -96v-357h-205v-149h108zM737 287v354h-149v-354h149z" />
    <glyph glyph-name="oe" unicode="&#x153;" horiz-adv-x="1843" 
d="M1403 645h-348v143h348v-143zM788 236h-348v552h348v-552zM1669 -28v264h-614v143h409v205h205v266h-205v205h-471v-205h-143v205h-471v-205h-205v-676h205v-202h471v202h143v-202h676zM1720 287v-13l97 -96v-353h-766l-54 53v-53h-561l-96 96h-12v106h-97l-96 96h-12
v778h205v205h573v-12l41 -41v53h574v-12l96 -97v-96h108v-12l97 -96v-357h-205v-149h108zM737 287v354h-149v-354h149z" />
    <glyph glyph-name="endash" horiz-adv-x="819" 
d="M645 584v266h-471v-266h471zM696 901v-12l97 -96v-357h-562l-96 96h-12v369h573z" />
    <glyph glyph-name="endash" unicode="&#x2013;" horiz-adv-x="819" 
d="M645 584v266h-471v-266h471zM696 901v-12l97 -96v-357h-562l-96 96h-12v369h573z" />
    <glyph glyph-name="emdash" horiz-adv-x="1229" 
d="M1055 584v266h-881v-266h881zM1106 901v-12l96 -96v-357h-971l-96 96h-12v369h983z" />
    <glyph glyph-name="emdash" unicode="&#x2014;" horiz-adv-x="1229" 
d="M1055 584v266h-881v-266h881zM1106 901v-12l96 -96v-357h-971l-96 96h-12v369h983z" />
    <glyph glyph-name="quotedblleft" horiz-adv-x="922" 
d="M440 1096v266h-102v102h-164v-368h266zM748 1096v266h-103v102h-164v-368h267zM389 1516v-13l41 -41v54h266v-13l90 -90h13v-12l96 -96v-357h-664l-96 96h-12v472h266z" />
    <glyph glyph-name="quotedblleft" unicode="&#x201c;" horiz-adv-x="922" 
d="M440 1096v266h-102v102h-164v-368h266zM748 1096v266h-103v102h-164v-368h267zM389 1516v-13l41 -41v54h266v-13l90 -90h13v-12l96 -96v-357h-664l-96 96h-12v472h266z" />
    <glyph glyph-name="quotedblright" horiz-adv-x="922" 
d="M440 1096v368h-266v-266h102v-102h164zM748 1096v368h-267v-266h103v-102h164zM135 1147h-12v369h676v-13l96 -96v-459h-254l-53 53v-53h-254l-96 96h-13v13z" />
    <glyph glyph-name="quotedblright" unicode="&#x201d;" horiz-adv-x="922" 
d="M440 1096v368h-266v-266h102v-102h164zM748 1096v368h-267v-266h103v-102h164zM135 1147h-12v369h676v-13l96 -96v-459h-254l-53 53v-53h-254l-96 96h-13v13z" />
    <glyph glyph-name="quoteleft" horiz-adv-x="614" 
d="M440 1096v266h-102v102h-164v-368h266zM389 1516v-13l90 -90h13v-12l96 -96v-357h-357l-96 96h-12v472h266z" />
    <glyph glyph-name="quoteleft" unicode="&#x2018;" horiz-adv-x="614" 
d="M440 1096v266h-102v102h-164v-368h266zM389 1516v-13l90 -90h13v-12l96 -96v-357h-357l-96 96h-12v472h266z" />
    <glyph glyph-name="quoteright" horiz-adv-x="614" 
d="M440 1096v368h-266v-266h102v-102h164zM135 1147h-12v369h369v-13l96 -96v-459h-254l-96 96h-13v13z" />
    <glyph glyph-name="quoteright" unicode="&#x2019;" horiz-adv-x="614" 
d="M440 1096v368h-266v-266h102v-102h164zM135 1147h-12v369h369v-13l96 -96v-459h-254l-96 96h-13v13z" />
    <glyph glyph-name="divide" unicode="&#xf7;" horiz-adv-x="1024" 
d="M645 891v266h-266v-266h266zM645 276v267h-266v-267h266zM850 584v266h-676v-266h676zM328 901v307h368v-12l97 -96v-199h108v-12l96 -96v-357h-204v-307h-357l-96 96h-12v211h-97l-96 96h-12v369h205z" />
    <glyph glyph-name="ydieresis" unicode="&#xff;" 
d="M1260 -437v1492h-267v-819h-553v819h-266v-881h205v-202h614v-143h-614v-266h881zM381 -120l-41 41h-12v106h-97l-96 96h-12v983h369v-12l96 -97v-710h354v819h369v-12l96 -97v-1582h-971l-96 97h-12v368h53zM696 1202v164h-164v-164h164zM901 1202v164h-164v-164h164z
M952 1417v-13l96 -96v-254h-459l-96 96h-12v267h471z" />
    <glyph glyph-name="Ydieresis" 
d="M696 1608v164h-164v-164h164zM901 1608v164h-164v-164h164zM952 1823v-13l96 -96v-254h-459l-96 96h-12v267h471zM1260 788v676h-267v-614h-205v-205h-143v205h-205v614h-266v-676h205v-204h205v-612h266v612h205v204h205zM696 901v-12l41 -41v53h205v615h369v-13l96 -96
v-766h-205v-205h-205v-611h-356l-96 96h-13v515h-96l-96 96h-12v109h-97l-96 96h-12v779h369v-13l96 -96v-506h108z" />
    <glyph glyph-name="Ydieresis" unicode="&#x178;" 
d="M696 1608v164h-164v-164h164zM901 1608v164h-164v-164h164zM952 1823v-13l96 -96v-254h-459l-96 96h-12v267h471zM1260 788v676h-267v-614h-205v-205h-143v205h-205v614h-266v-676h205v-204h205v-612h266v612h205v204h205zM696 901v-12l41 -41v53h205v615h369v-13l96 -96
v-766h-205v-205h-205v-611h-356l-96 96h-13v515h-96l-96 96h-12v109h-97l-96 96h-12v779h369v-13l96 -96v-506h108z" />
    <glyph glyph-name="guilsinglleft" horiz-adv-x="1024" 
d="M850 174v266h-205v205h-205v143h205v205h205v267h-266v-205h-205v-205h-205v-266h205v-205h205v-205h266zM436 231l-96 97h-12v108h-97l-96 96h-12v369h205v205h204v205h369v-13l96 -96v-356h-204v-205h-54l54 -53v-96h108v-13l96 -96v-356h-356l-96 96h-13v108h-96z" />
    <glyph glyph-name="guilsinglleft" unicode="&#x2039;" horiz-adv-x="1024" 
d="M850 174v266h-205v205h-205v143h205v205h205v267h-266v-205h-205v-205h-205v-266h205v-205h205v-205h266zM436 231l-96 97h-12v108h-97l-96 96h-12v369h205v205h204v205h369v-13l96 -96v-356h-204v-205h-54l54 -53v-96h108v-13l96 -96v-356h-356l-96 96h-13v108h-96z" />
    <glyph glyph-name="guilsinglright" horiz-adv-x="1024" 
d="M850 584v266h-205v205h-205v205h-266v-267h205v-205h205v-143h-205v-205h-205v-266h266v205h205v205h205zM901 901v-12l96 -96v-357h-204v-205h-205v-204h-357l-96 96h-12v369h205v204h53l-41 41h-12v109h-97l-96 96h-12v369h369v-13l96 -96v-96h108v-12l97 -97v-96h108z
" />
    <glyph glyph-name="guilsinglright" unicode="&#x203a;" horiz-adv-x="1024" 
d="M850 584v266h-205v205h-205v205h-266v-267h205v-205h205v-143h-205v-205h-205v-266h266v205h205v205h205zM901 901v-12l96 -96v-357h-204v-205h-205v-204h-357l-96 96h-12v369h205v204h53l-41 41h-12v109h-97l-96 96h-12v369h369v-13l96 -96v-96h108v-12l97 -97v-96h108z
" />
    <glyph glyph-name="quotesinglbase" horiz-adv-x="614" 
d="M440 -130v366h-266v-264h102v-102h164zM135 -79h-12v366h369v-13l96 -96v-456h-254l-96 97h-13v12z" />
    <glyph glyph-name="quotesinglbase" unicode="&#x201a;" horiz-adv-x="614" 
d="M440 -130v366h-266v-264h102v-102h164zM135 -79h-12v366h369v-13l96 -96v-456h-254l-96 97h-13v12z" />
    <glyph glyph-name="quotedblbase" horiz-adv-x="922" 
d="M440 -130v366h-266v-264h102v-102h164zM748 -130v366h-267v-264h103v-102h164zM135 -79h-12v366h676v-13l96 -96v-456h-254l-53 54v-54h-254l-96 97h-13v12z" />
    <glyph glyph-name="quotedblbase" unicode="&#x201e;" horiz-adv-x="922" 
d="M440 -130v366h-266v-264h102v-102h164zM748 -130v366h-267v-264h103v-102h164zM135 -79h-12v366h676v-13l96 -96v-456h-254l-53 54v-54h-254l-96 97h-13v12z" />
    <glyph glyph-name="perthousand" horiz-adv-x="2662" 
d="M2222 236h-143v143h143v-143zM1403 236h-143v143h143v-143zM584 1055h-144v143h144v-143zM1669 174v266h-205v205h-266v-205h-205v-266h205v-202h266v202h205zM2488 174v266h-204v205h-267v-205h-205v-266h205v-202h267v202h204zM850 993v267h-205v204h-266v-204h-205
v-267h205v-205h266v205h205zM1464 993v471h-266v-409h-205v-205h-205v-205h-204v-205h-205v-468h266v407h205v205h205v204h205v205h204zM1147 1106v410h369v-13l96 -96v-561h-205v-150h109v-12l96 -96v-96h108v-13l41 -41v54h205v204h369v-12l96 -96v-96h109v-13l96 -96
v-356h-205v-202h-356l-97 96h-12v106h-96l-53 53v-53h-205v-202h-357l-96 96h-12v106h-96l-97 96h-12v108h-149v-406h-357l-96 96h-12v571h204v149h-96l-96 96h-12v109h-97l-96 96h-12v369h205v205h368v-13l97 -96v-96h108v-13l96 -96v-96h150z" />
    <glyph glyph-name="perthousand" unicode="&#x2030;" horiz-adv-x="2662" 
d="M2222 236h-143v143h143v-143zM1403 236h-143v143h143v-143zM584 1055h-144v143h144v-143zM1669 174v266h-205v205h-266v-205h-205v-266h205v-202h266v202h205zM2488 174v266h-204v205h-267v-205h-205v-266h205v-202h267v202h204zM850 993v267h-205v204h-266v-204h-205
v-267h205v-205h266v205h205zM1464 993v471h-266v-409h-205v-205h-205v-205h-204v-205h-205v-468h266v407h205v205h205v204h205v205h204zM1147 1106v410h369v-13l96 -96v-561h-205v-150h109v-12l96 -96v-96h108v-13l41 -41v54h205v204h369v-12l96 -96v-96h109v-13l96 -96
v-356h-205v-202h-356l-97 96h-12v106h-96l-53 53v-53h-205v-202h-357l-96 96h-12v106h-96l-97 96h-12v108h-149v-406h-357l-96 96h-12v571h204v149h-96l-96 96h-12v109h-97l-96 96h-12v369h205v205h368v-13l97 -96v-96h108v-13l96 -96v-96h150z" />
    <glyph glyph-name="Acircumflex" unicode="&#xc2;" 
d="M993 645h-553v553h553v-553zM1260 -28v1288h-205v204h-676v-204h-205v-1288h266v407h553v-407h267zM588 231v-406h-357l-96 96h-12v1390h205v205h778v-13l96 -96v-96h109v-13l96 -96v-1377h-356l-97 96h-12v310h-354zM942 696v355h-354v-355h354zM1004 1505v164h-103v103
h-102v102h-164v-102h-103v-103h-102v-164h164v103h102v102h41v-102h103v-103h164zM741 1460v-102h-254l-96 96h-12v266h102v103h103v102h266v-12l90 -90h12v-13l90 -90h13v-12l96 -96v-254h-254l-96 96h-13v6h-47z" />
    <glyph glyph-name="Ecircumflex" unicode="&#xca;" 
d="M1004 1505v164h-103v103h-102v102h-164v-102h-103v-103h-102v-164h164v103h102v102h41v-102h103v-103h164zM741 1460v-102h-254l-96 96h-12v266h102v103h103v102h266v-12l90 -90h12v-13l90 -90h13v-12l96 -96v-254h-254l-96 96h-13v6h-47zM1260 -28v264h-820v348h820v266
h-820v348h820v266h-1086v-1492h1086zM1311 1516v-13l96 -96v-356h-819v-150h723v-12l96 -96v-357h-819v-149h723v-13l96 -96v-353h-1176l-96 96h-12v1595h1188z" />
    <glyph glyph-name="Aacute" unicode="&#xc1;" 
d="M1055 1710v164h-164v-102h-103v-103h-102v-164h164v103h102v102h103zM635 1454v266h102v103h103v102h266v-12l96 -96v-254h-102v-103h-103v-102h-254l-96 96h-12zM993 645h-553v553h553v-553zM1260 -28v1288h-205v204h-676v-204h-205v-1288h266v407h553v-407h267z
M588 231v-406h-357l-96 96h-12v1390h205v205h778v-13l96 -96v-96h109v-13l96 -96v-1377h-356l-97 96h-12v310h-354zM942 696v355h-354v-355h354z" />
    <glyph glyph-name="Edieresis" unicode="&#xcb;" 
d="M1260 -28v264h-820v348h820v266h-820v348h820v266h-1086v-1492h1086zM1311 1516v-13l96 -96v-356h-819v-150h723v-12l96 -96v-357h-819v-149h723v-13l96 -96v-353h-1176l-96 96h-12v1595h1188zM696 1608v164h-164v-164h164zM901 1608v164h-164v-164h164zM952 1823v-13
l96 -96v-254h-459l-96 96h-12v267h471z" />
    <glyph glyph-name="Egrave" unicode="&#xc8;" 
d="M748 1505v164h-103v103h-102v102h-164v-164h102v-102h103v-103h164zM443 1556h-13v13l-90 90h-12v266h266v-12l90 -90h13v-13l90 -90h12v-12l96 -96v-254h-254l-96 96h-12v12zM1260 -28v264h-820v348h820v266h-820v348h820v266h-1086v-1492h1086zM1311 1516v-13l96 -96
v-356h-819v-150h723v-12l96 -96v-357h-819v-149h723v-13l96 -96v-353h-1176l-96 96h-12v1595h1188z" />
    <glyph glyph-name="Iacute" unicode="&#xcd;" horiz-adv-x="614" 
d="M440 -28v1492h-266v-1492h266zM492 1516v-13l96 -96v-1582h-357l-96 96h-12v1595h369zM543 1710v164h-164v-102h-103v-103h-102v-164h164v103h102v102h103zM123 1454v266h102v103h103v102h266v-12l96 -96v-254h-102v-103h-103v-102h-254l-96 96h-12z" />
    <glyph glyph-name="Icircumflex" unicode="&#xce;" horiz-adv-x="614" 
d="M597 1505v164h-103v103h-102v102h-164v-102h-103v-103h-102v-164h164v103h102v102h41v-102h103v-103h164zM334 1460v-102h-254l-96 96h-12v266h102v103h103v102h266v-12l90 -90h12v-13l90 -90h13v-12l96 -96v-254h-254l-96 96h-13v6h-47zM440 -28v1492h-266v-1492h266z
M492 1516v-13l96 -96v-1582h-357l-96 96h-12v1595h369z" />
    <glyph glyph-name="Idieresis" unicode="&#xcf;" horiz-adv-x="614" 
d="M290 1608v164h-164v-164h164zM495 1608v164h-164v-164h164zM546 1823v-13l96 -96v-254h-459l-96 96h-12v267h471zM440 -28v1492h-266v-1492h266zM492 1516v-13l96 -96v-1582h-357l-96 96h-12v1595h369z" />
    <glyph glyph-name="Igrave" unicode="&#xcc;" horiz-adv-x="614" 
d="M444 1505v164h-103v103h-102v102h-164v-164h102v-102h103v-103h164zM139 1556h-13v13l-90 90h-12v266h266v-12l90 -90h13v-13l90 -90h12v-12l96 -96v-254h-254l-96 96h-12v12zM440 -28v1492h-266v-1492h266zM492 1516v-13l96 -96v-1582h-357l-96 96h-12v1595h369z" />
    <glyph glyph-name="Oacute" unicode="&#xd3;" 
d="M1055 1710v164h-164v-102h-103v-103h-102v-164h164v103h102v102h103zM635 1454v266h102v103h103v102h266v-12l96 -96v-254h-102v-103h-103v-102h-254l-96 96h-12zM993 236h-553v962h553v-962zM1260 174v1086h-205v204h-676v-204h-205v-1086h205v-202h676v202h205z
M1311 1311v-13l96 -96v-1175h-205v-202h-766l-96 96h-12v106h-97l-96 96h-12v1188h205v205h778v-13l96 -96v-96h109zM942 287v764h-354v-764h354z" />
    <glyph glyph-name="Ocircumflex" unicode="&#xd4;" 
d="M1004 1505v164h-103v103h-102v102h-164v-102h-103v-103h-102v-164h164v103h102v102h41v-102h103v-103h164zM741 1460v-102h-254l-96 96h-12v266h102v103h103v102h266v-12l90 -90h12v-13l90 -90h13v-12l96 -96v-254h-254l-96 96h-13v6h-47zM993 236h-553v962h553v-962z
M1260 174v1086h-205v204h-676v-204h-205v-1086h205v-202h676v202h205zM1311 1311v-13l96 -96v-1175h-205v-202h-766l-96 96h-12v106h-97l-96 96h-12v1188h205v205h778v-13l96 -96v-96h109zM942 287v764h-354v-764h354z" />
    <glyph glyph-name="Ograve" unicode="&#xd2;" 
d="M748 1505v164h-103v103h-102v102h-164v-164h102v-102h103v-103h164zM443 1556h-13v13l-90 90h-12v266h266v-12l90 -90h13v-13l90 -90h12v-12l96 -96v-254h-254l-96 96h-12v12zM993 236h-553v962h553v-962zM1260 174v1086h-205v204h-676v-204h-205v-1086h205v-202h676v202
h205zM1311 1311v-13l96 -96v-1175h-205v-202h-766l-96 96h-12v106h-97l-96 96h-12v1188h205v205h778v-13l96 -96v-96h109zM942 287v764h-354v-764h354z" />
    <glyph glyph-name="Uacute" unicode="&#xda;" 
d="M1260 174v1290h-267v-1228h-553v1228h-266v-1290h205v-202h676v202h205zM942 287v1229h369v-13l96 -96v-1380h-205v-202h-766l-96 96h-12v106h-97l-96 96h-12v1393h369v-13l96 -96v-1120h354zM1055 1710v164h-164v-102h-103v-103h-102v-164h164v103h102v102h103z
M635 1454v266h102v103h103v102h266v-12l96 -96v-254h-102v-103h-103v-102h-254l-96 96h-12z" />
    <glyph glyph-name="Ucircumflex" unicode="&#xdb;" 
d="M1004 1505v164h-103v103h-102v102h-164v-102h-103v-103h-102v-164h164v103h102v102h41v-102h103v-103h164zM741 1460v-102h-254l-96 96h-12v266h102v103h103v102h266v-12l90 -90h12v-13l90 -90h13v-12l96 -96v-254h-254l-96 96h-13v6h-47zM1260 174v1290h-267v-1228h-553
v1228h-266v-1290h205v-202h676v202h205zM942 287v1229h369v-13l96 -96v-1380h-205v-202h-766l-96 96h-12v106h-97l-96 96h-12v1393h369v-13l96 -96v-1120h354z" />
    <glyph glyph-name="Ugrave" unicode="&#xd9;" 
d="M748 1505v164h-103v103h-102v102h-164v-164h102v-102h103v-103h164zM443 1556h-13v13l-90 90h-12v266h266v-12l90 -90h13v-13l90 -90h12v-12l96 -96v-254h-254l-96 96h-12v12zM1260 174v1290h-267v-1228h-553v1228h-266v-1290h205v-202h676v202h205zM942 287v1229h369
v-13l96 -96v-1380h-205v-202h-766l-96 96h-12v106h-97l-96 96h-12v1393h369v-13l96 -96v-1120h354z" />
    <glyph glyph-name="dotlessi" unicode="&#x131;" horiz-adv-x="614" 
d="M440 -28v1083h-266v-1083h266zM492 1106v-12l96 -97v-1172h-357l-96 96h-12v1185h369z" />
    <glyph glyph-name="circumflex" horiz-adv-x="922" 
d="M748 1505v164h-103v103h-102v102h-164v-102h-103v-103h-102v-164h164v103h102v102h41v-102h103v-103h164zM485 1460v-102h-254l-96 96h-12v266h102v103h103v102h266v-12l90 -90h12v-13l90 -90h13v-12l96 -96v-254h-254l-96 96h-13v6h-47z" />
    <glyph glyph-name="circumflex" unicode="&#x2c6;" horiz-adv-x="922" 
d="M748 1505v164h-103v103h-102v102h-164v-102h-103v-103h-102v-164h164v103h102v102h41v-102h103v-103h164zM485 1460v-102h-254l-96 96h-12v266h102v103h103v102h266v-12l90 -90h12v-13l90 -90h13v-12l96 -96v-254h-254l-96 96h-13v6h-47z" />
    <glyph glyph-name="tilde" horiz-adv-x="1126" 
d="M952 1710v164h-164v-102h-102v-103h-41v103h-102v102h-164v-102h-103v-103h-102v-164h164v103h102v102h41v-102h103v-103h164v103h102v102h102zM123 1454v266h102v103h103v102h266v-12l90 -90h53v102h267v-12l96 -96v-254h-103v-103h-102v-102h-254l-96 96h-13v6h-47
v-102h-254l-96 96h-12z" />
    <glyph glyph-name="tilde" unicode="&#x2dc;" horiz-adv-x="1126" 
d="M952 1710v164h-164v-102h-102v-103h-41v103h-102v102h-164v-102h-103v-103h-102v-164h164v103h102v102h41v-102h103v-103h164v103h102v102h102zM123 1454v266h102v103h103v102h266v-12l90 -90h53v102h267v-12l96 -96v-254h-103v-103h-102v-102h-254l-96 96h-13v6h-47
v-102h-254l-96 96h-12z" />
    <glyph glyph-name="macron" unicode="&#xaf;" horiz-adv-x="1024" 
d="M850 1198v266h-676v-266h676zM901 1516v-13l96 -96v-356h-766l-96 96h-12v369h778z" />
    <glyph glyph-name="ring" unicode="&#x2da;" horiz-adv-x="717" 
d="M379 1669h-41v41h41v-41zM543 1608v164h-103v102h-164v-102h-102v-164h102v-103h164v103h103zM225 1454v12l-90 90h-12v267h102v102h267v-12l90 -90h12v-13l96 -96v-254h-102v-102h-254l-96 96h-13z" />
    <glyph glyph-name="caron" unicode="&#x2c7;" horiz-adv-x="922" 
d="M748 1710v164h-164v-102h-103v-103h-41v103h-102v102h-164v-164h102v-102h103v-103h164v103h102v102h103zM328 1454v12l-90 90h-13v13l-90 90h-12v266h266v-12l90 -90h53v102h267v-12l96 -96v-254h-102v-103h-103v-102h-254l-96 96h-12z" />
    <glyph glyph-name="nonbreakingspace" unicode="&#xa0;" horiz-adv-x="1229" 
 />
    <glyph glyph-name="numbersign" unicode="#" 
d="M788 850h-143v143h143v-143zM1260 584v266h-205v143h205v267h-205v204h-267v-204h-143v204h-266v-204h-205v-267h205v-143h-205v-266h205v-205h266v205h143v-205h267v205h205zM1311 1311v-13l96 -96v-356h-53l53 -53v-357h-205v-205h-356l-53 54v-54h-357l-96 97h-12v108
h-97l-96 96h-12v369h53l-41 41h-12v369h205v205h368v-13l41 -41v54h369v-13l96 -96v-96h109z" />
    <glyph glyph-name="exclam" unicode="!" horiz-adv-x="614" 
d="M440 -28v264h-266v-264h266zM440 379v1085h-266v-1085h266zM492 1516v-13l96 -96v-1176h-53l53 -53v-353h-357l-96 96h-12v366h53l-41 41h-12v1188h369z" />
    <glyph glyph-name="quotedbl" unicode="&#x22;" horiz-adv-x="922" 
d="M440 1096v368h-266v-266h102v-102h164zM748 1096v368h-267v-266h103v-102h164zM135 1147h-12v369h676v-13l96 -96v-459h-254l-53 53v-53h-254l-96 96h-13v13z" />
    <glyph glyph-name=".null" horiz-adv-x="0" 
 />
    <glyph glyph-name="nonmarkingreturn" horiz-adv-x="1229" 
 />
    <glyph glyph-name="Scaron" 
d="M1260 174v471h-205v205h-615v348h553v-205h267v267h-205v204h-676v-204h-205v-472h205v-204h614v-348h-553v204h-266v-266h205v-202h676v202h205zM1311 696v-12l96 -96v-561h-205v-202h-766l-96 96h-12v106h-97l-96 96h-12v369h258l-41 40h-12v109h-97l-96 96h-12v574
h205v205h778v-13l96 -96v-96h109v-13l96 -96v-356h-258l53 -53v-97h109zM942 287v149h-407l53 -53v-96h354zM995 901l-41 41h-12v109h-354v-150h407zM1004 1710v164h-164v-102h-103v-103h-41v103h-102v102h-164v-164h102v-102h103v-103h164v103h102v102h103zM584 1454v12
l-90 90h-13v13l-90 90h-12v266h266v-12l90 -90h53v102h267v-12l96 -96v-254h-102v-103h-103v-102h-254l-96 96h-12z" />
    <glyph glyph-name="Scaron" unicode="&#x160;" 
d="M1260 174v471h-205v205h-615v348h553v-205h267v267h-205v204h-676v-204h-205v-472h205v-204h614v-348h-553v204h-266v-266h205v-202h676v202h205zM1311 696v-12l96 -96v-561h-205v-202h-766l-96 96h-12v106h-97l-96 96h-12v369h258l-41 40h-12v109h-97l-96 96h-12v574
h205v205h778v-13l96 -96v-96h109v-13l96 -96v-356h-258l53 -53v-97h109zM942 287v149h-407l53 -53v-96h354zM995 901l-41 41h-12v109h-354v-150h407zM1004 1710v164h-164v-102h-103v-103h-41v103h-102v102h-164v-164h102v-102h103v-103h164v103h102v102h103zM584 1454v12
l-90 90h-13v13l-90 90h-12v266h266v-12l90 -90h53v102h267v-12l96 -96v-254h-102v-103h-103v-102h-254l-96 96h-12z" />
    <glyph glyph-name="scaron" 
d="M1004 1303v164h-164v-102h-103v-103h-41v103h-102v102h-164v-164h102v-102h103v-103h164v103h102v102h103zM584 1047v12l-90 90h-13v13l-90 90h-12v266h266v-12l90 -90h53v102h267v-12l96 -96v-254h-102v-103h-103v-102h-254l-96 96h-12zM1260 174v266h-205v205h-615v143
h820v267h-881v-205h-205v-266h205v-205h614v-143h-819v-264h881v202h205zM1311 492v-13l96 -96v-356h-205v-202h-971l-96 96h-12v366h258l-41 41h-12v108h-97l-96 96h-12v369h205v205h983v-12l96 -97v-356h-258l53 -53v-96h109z" />
    <glyph glyph-name="scaron" unicode="&#x161;" 
d="M1004 1303v164h-164v-102h-103v-103h-41v103h-102v102h-164v-164h102v-102h103v-103h164v103h102v102h103zM584 1047v12l-90 90h-13v13l-90 90h-12v266h266v-12l90 -90h53v102h267v-12l96 -96v-254h-102v-103h-103v-102h-254l-96 96h-12zM1260 174v266h-205v205h-615v143
h820v267h-881v-205h-205v-266h205v-205h614v-143h-819v-264h881v202h205zM1311 492v-13l96 -96v-356h-205v-202h-971l-96 96h-12v366h258l-41 41h-12v108h-97l-96 96h-12v369h205v205h983v-12l96 -97v-356h-258l53 -53v-96h109z" />
    <glyph glyph-name="Yacute" unicode="&#xdd;" 
d="M1260 788v676h-267v-614h-205v-205h-143v205h-205v614h-266v-676h205v-204h205v-612h266v612h205v204h205zM696 901v-12l41 -41v53h205v615h369v-13l96 -96v-766h-205v-205h-205v-611h-356l-96 96h-13v515h-96l-96 96h-12v109h-97l-96 96h-12v779h369v-13l96 -96v-506
h108zM1055 1710v164h-164v-102h-103v-103h-102v-164h164v103h102v102h103zM635 1454v266h102v103h103v102h266v-12l96 -96v-254h-102v-103h-103v-102h-254l-96 96h-12z" />
    <glyph glyph-name="yacute" unicode="&#xfd;" 
d="M1055 1303v164h-164v-102h-103v-103h-102v-164h164v103h102v102h103zM635 1047v266h102v103h103v102h266v-12l96 -96v-254h-102v-103h-103v-102h-254l-96 96h-12zM1260 -437v1492h-267v-819h-553v819h-266v-881h205v-202h614v-143h-614v-266h881zM381 -120l-41 41h-12
v106h-97l-96 96h-12v983h369v-12l96 -97v-710h354v819h369v-12l96 -97v-1582h-971l-96 97h-12v368h53z" />
    <glyph glyph-name="minus" unicode="&#xad;" horiz-adv-x="1024" 
d="M850 584v266h-676v-266h676zM901 901v-12l96 -96v-357h-766l-96 96h-12v369h778z" />
    <glyph glyph-name="multiply" unicode="&#xd7;" horiz-adv-x="1024" 
d="M850 379v266h-205v143h205v267h-266v-205h-144v205h-266v-267h205v-143h-205v-266h266v205h144v-205h266zM123 328v368h53l-41 41h-12v369h369v-12l40 -41v53h369v-12l96 -97v-356h-53l53 -53v-357h-356l-53 54v-54h-357l-96 97h-12z" />
  </font>
</defs>
</svg>
